<svg width="74" height="19" viewBox="0 0 74 19" fill="none" xmlns="http://www.w3.org/2000/svg">
<path d="M24.1329 13.08H18.3804V10.665H23.8104V8.745H18.3804V6.42H24.0729V4.5H16.2879V15H24.1329V13.08ZM32.7398 7.7325H30.4748L28.9148 9.99L27.3473 7.7325H25.0223L27.6248 11.31L24.9548 15H27.2198L28.8248 12.69L30.4598 15H32.7848L30.1373 11.3025L32.7398 7.7325ZM37.7589 7.5375C36.7614 7.5375 36.0639 7.9425 35.5914 8.535V7.7325H33.6789V18H35.6289V14.2425C36.1014 14.805 36.7914 15.1875 37.7664 15.1875C39.7689 15.1875 41.2839 13.545 41.2839 11.3625C41.2839 9.18 39.7689 7.5375 37.7589 7.5375ZM37.3989 9.36C38.5539 9.36 39.2739 10.2525 39.2739 11.3625C39.2739 12.4725 38.5539 13.365 37.3989 13.365C36.2889 13.365 35.5314 12.51 35.5314 11.3625C35.5314 10.215 36.2889 9.36 37.3989 9.36ZM44.5023 4.2H42.5448V15H44.5023V4.2ZM49.6976 7.5375C47.4401 7.5375 45.7751 9.1725 45.7751 11.3625C45.7751 13.5525 47.4401 15.1875 49.6976 15.1875C51.9626 15.1875 53.6351 13.5525 53.6351 11.3625C53.6351 9.1725 51.9626 7.5375 49.6976 7.5375ZM49.6976 9.36C50.8001 9.36 51.6326 10.185 51.6326 11.3625C51.6326 12.54 50.8001 13.365 49.6976 13.365C48.5951 13.365 47.7701 12.54 47.7701 11.3625C47.7701 10.185 48.5951 9.36 49.6976 9.36ZM58.8455 7.5375C57.953 7.5375 57.2555 7.845 56.798 8.5275V7.7325H54.9005V15H56.858V11.04C56.858 9.96 57.4805 9.405 58.388 9.405C58.7855 9.405 59.2505 9.495 59.573 9.6375L59.8655 7.695C59.5955 7.5975 59.2655 7.5375 58.8455 7.5375ZM63.842 7.5375C61.667 7.5375 60.167 9.0975 60.167 11.385C60.167 13.6725 61.712 15.1875 63.9395 15.1875C65.162 15.1875 66.212 14.8425 67.037 14.085L65.8895 12.825C65.3645 13.2675 64.682 13.5225 64.052 13.5225C63.1295 13.5225 62.3945 13.065 62.1845 12.015H67.337C67.3595 11.85 67.3745 11.58 67.3745 11.355C67.367 9.09 65.9345 7.5375 63.842 7.5375ZM63.827 9.225C64.667 9.225 65.2295 9.75 65.4095 10.68H62.192C62.3645 9.78 62.9045 9.225 63.827 9.225ZM72.5783 7.5375C71.6858 7.5375 70.9883 7.845 70.5308 8.5275V7.7325H68.6333V15H70.5908V11.04C70.5908 9.96 71.2133 9.405 72.1208 9.405C72.5183 9.405 72.9833 9.495 73.3058 9.6375L73.5983 7.695C73.3283 7.5975 72.9983 7.5375 72.5783 7.5375Z" fill="white"/>
<circle cx="4" cy="10" r="4" fill="white"/>
</svg>
